<svg id="svg" version="1.1" xmlns="http://www.w3.org/2000/svg" xmlns:xlink="http://www.w3.org/1999/xlink" width="400" height="400" viewBox="0, 0, 400,400"><g id="svgg"><path id="path0" d="M132.876 256.263 C 112.419 261.621,112.800 290.850,133.398 296.307 C 135.484 296.860,143.558 296.953,206.569 297.155 L 277.396 297.383 275.441 293.711 C 269.879 283.266,269.614 272.122,274.643 260.218 C 275.520 258.143,276.329 256.226,276.442 255.957 C 276.836 255.014,136.501 255.313,132.876 256.263 " stroke="none" fill="#fbc42b" fill-rule="evenodd"></path><path id="path1" d="M126.848 90.381 C 126.965 90.569,126.433 90.650,125.667 90.560 C 124.860 90.466,124.369 90.552,124.500 90.764 C 124.634 90.980,124.291 91.020,123.658 90.862 C 122.880 90.666,122.669 90.720,122.880 91.062 C 123.085 91.393,122.912 91.462,122.288 91.299 C 121.804 91.172,121.512 91.173,121.639 91.301 C 121.885 91.547,118.884 93.049,118.084 93.081 C 117.824 93.091,117.721 93.275,117.855 93.491 C 118.001 93.727,117.830 93.780,117.427 93.626 C 117.048 93.480,116.855 93.528,116.983 93.735 C 117.266 94.193,115.840 94.996,115.418 94.615 C 115.248 94.462,115.224 94.536,115.364 94.781 C 115.610 95.213,113.878 96.649,113.086 96.670 C 112.871 96.675,112.689 96.855,112.681 97.070 C 112.654 97.856,111.669 99.234,111.299 99.005 C 111.089 98.876,110.950 98.915,110.990 99.092 C 111.133 99.733,110.455 100.771,110.055 100.523 C 109.816 100.375,109.761 100.458,109.923 100.720 C 110.252 101.252,109.238 102.858,108.831 102.451 C 108.678 102.298,108.680 102.503,108.835 102.908 C 109.017 103.384,108.971 103.554,108.704 103.389 C 108.477 103.248,108.299 103.351,108.309 103.617 C 108.353 104.841,108.173 105.496,107.849 105.296 C 107.654 105.176,107.594 105.456,107.715 105.920 C 107.856 106.460,107.786 106.670,107.520 106.506 C 107.253 106.341,107.183 106.552,107.325 107.092 C 107.474 107.664,107.401 107.846,107.099 107.659 C 106.784 107.464,106.723 107.734,106.891 108.574 C 107.022 109.230,106.975 109.766,106.787 109.766 C 106.593 109.766,106.445 146.589,106.445 195.080 C 106.445 243.177,106.593 280.303,106.784 280.185 C 106.971 280.069,107.054 280.702,106.969 281.589 C 106.885 282.477,106.972 283.203,107.164 283.203 C 107.356 283.203,107.430 283.637,107.329 284.168 C 107.216 284.759,107.297 285.038,107.540 284.888 C 107.782 284.738,107.850 284.970,107.715 285.486 C 107.574 286.026,107.644 286.237,107.910 286.072 C 108.177 285.908,108.247 286.118,108.106 286.658 C 107.965 287.198,108.035 287.409,108.301 287.244 C 108.567 287.080,108.638 287.290,108.496 287.830 C 108.354 288.376,108.424 288.581,108.697 288.413 C 108.959 288.251,109.027 288.388,108.877 288.778 C 108.746 289.121,108.769 289.458,108.929 289.526 C 109.494 289.765,111.318 293.451,111.069 293.853 C 110.922 294.091,111.005 294.145,111.268 293.983 C 111.677 293.730,111.900 294.216,111.755 295.049 C 111.725 295.226,111.871 295.265,112.080 295.135 C 112.548 294.846,113.362 296.261,112.975 296.691 C 112.821 296.861,112.896 296.886,113.141 296.746 C 113.386 296.606,113.873 296.929,114.224 297.464 C 114.575 298.000,114.734 298.438,114.578 298.438 C 114.422 298.438,114.972 299.132,115.801 299.980 C 116.629 300.828,117.412 301.489,117.540 301.448 C 117.992 301.303,119.522 302.613,119.236 302.900 C 119.076 303.059,119.121 303.148,119.336 303.096 C 119.982 302.939,121.106 303.571,120.867 303.957 C 120.745 304.155,120.790 304.291,120.967 304.260 C 121.799 304.116,122.286 304.338,122.033 304.748 C 121.880 304.996,121.918 305.098,122.117 304.974 C 122.558 304.702,127.824 307.202,127.497 307.529 C 127.370 307.656,127.663 307.656,128.147 307.529 C 128.717 307.380,128.938 307.446,128.771 307.715 C 128.607 307.981,128.817 308.051,129.357 307.910 C 129.898 307.769,130.108 307.839,129.943 308.105 C 129.779 308.372,129.989 308.442,130.529 308.300 C 131.028 308.170,131.276 308.236,131.136 308.462 C 130.994 308.691,131.381 308.773,132.107 308.666 C 132.791 308.566,133.217 308.645,133.091 308.850 C 132.963 309.056,133.466 309.142,134.260 309.049 C 135.027 308.960,135.558 309.040,135.442 309.228 C 135.322 309.423,149.799 309.528,169.080 309.473 C 187.697 309.419,222.898 309.331,247.303 309.277 C 281.945 309.201,291.805 309.073,292.261 308.695 C 292.582 308.428,292.976 308.340,293.135 308.499 C 293.294 308.659,293.389 308.613,293.346 308.398 C 293.188 307.615,293.368 306.990,293.694 307.192 C 293.877 307.305,293.940 306.938,293.832 306.375 C 293.725 305.813,293.794 305.450,293.986 305.569 C 294.179 305.688,294.336 304.852,294.336 303.711 C 294.336 302.570,294.226 301.705,294.091 301.789 C 293.892 301.911,293.634 301.093,293.348 299.431 C 293.332 299.336,292.792 298.694,292.149 298.005 C 291.505 297.316,291.073 296.508,291.188 296.208 C 291.303 295.908,291.224 295.770,291.011 295.901 C 290.657 296.120,290.452 295.583,290.588 294.795 C 290.619 294.618,290.477 294.577,290.272 294.703 C 289.907 294.929,289.214 293.475,289.385 292.842 C 289.433 292.665,289.305 292.624,289.100 292.750 C 288.735 292.976,288.042 291.522,288.214 290.889 C 288.261 290.712,288.091 290.697,287.834 290.855 C 287.513 291.054,287.447 290.935,287.624 290.473 C 287.798 290.022,287.734 289.894,287.429 290.083 C 287.124 290.271,287.060 290.144,287.234 289.692 C 287.407 289.241,287.343 289.113,287.039 289.302 C 286.734 289.490,286.670 289.363,286.843 288.911 C 287.017 288.459,286.953 288.332,286.648 288.520 C 286.343 288.709,286.279 288.581,286.453 288.130 C 286.594 287.760,286.549 287.559,286.352 287.681 C 285.887 287.968,285.411 286.474,285.777 285.881 C 285.964 285.578,285.887 285.532,285.546 285.743 C 285.164 285.979,285.089 285.845,285.253 285.217 C 285.375 284.754,285.294 284.375,285.074 284.375 C 284.854 284.375,284.767 284.023,284.879 283.593 C 285.008 283.101,284.929 282.907,284.668 283.068 C 284.387 283.242,284.332 282.831,284.498 281.799 C 284.644 280.894,284.607 280.492,284.409 280.810 C 284.211 281.127,284.067 279.405,284.057 276.605 C 284.047 273.837,284.189 271.955,284.397 272.084 C 284.603 272.211,284.648 271.775,284.503 271.052 C 284.320 270.134,284.377 269.877,284.720 270.089 C 285.061 270.300,285.115 270.089,284.920 269.310 C 284.750 268.635,284.795 268.332,285.043 268.485 C 285.282 268.633,285.358 268.330,285.238 267.704 C 285.105 267.004,285.183 266.767,285.486 266.954 C 285.771 267.130,285.846 267.012,285.696 266.622 C 285.568 266.288,285.652 266.016,285.883 266.016 C 286.115 266.016,286.202 265.752,286.079 265.430 C 285.955 265.107,286.043 264.844,286.274 264.844 C 286.505 264.844,286.582 264.552,286.445 264.194 C 286.278 263.760,286.346 263.637,286.648 263.823 C 286.944 264.006,287.020 263.893,286.868 263.497 C 286.740 263.163,286.824 262.891,287.055 262.891 C 287.287 262.891,287.363 262.599,287.226 262.241 C 287.045 261.769,287.118 261.678,287.494 261.910 C 287.820 262.112,287.918 262.078,287.758 261.819 C 287.433 261.294,288.433 258.876,288.816 259.259 C 288.974 259.417,288.977 259.215,288.821 258.811 C 288.626 258.302,288.679 258.161,288.992 258.355 C 289.297 258.543,289.360 258.416,289.187 257.964 C 288.999 257.473,289.068 257.379,289.447 257.613 C 289.771 257.814,289.871 257.781,289.713 257.526 C 289.391 257.005,291.946 251.451,292.331 251.836 C 292.489 251.995,292.492 251.794,292.337 251.389 C 292.142 250.880,292.194 250.739,292.507 250.933 C 292.812 251.121,292.876 250.994,292.703 250.542 C 292.529 250.090,292.593 249.963,292.898 250.152 C 293.203 250.340,293.267 250.213,293.093 249.761 C 292.920 249.309,292.984 249.182,293.289 249.370 C 293.584 249.553,293.660 249.440,293.508 249.044 C 293.380 248.710,293.454 248.438,293.672 248.438 C 293.889 248.438,293.968 248.058,293.847 247.595 C 293.726 247.132,293.786 246.851,293.981 246.972 C 294.176 247.092,294.336 246.521,294.336 245.703 C 294.336 244.885,294.176 244.314,293.981 244.434 C 293.786 244.555,293.726 244.274,293.847 243.811 C 293.969 243.347,293.908 243.066,293.714 243.187 C 293.519 243.307,293.359 243.226,293.359 243.007 C 293.359 240.896,296.751 241.016,236.817 241.016 C 200.786 241.016,182.067 240.883,182.224 240.629 C 182.359 240.410,182.208 240.341,181.874 240.469 C 181.096 240.768,179.154 238.826,179.453 238.048 C 179.581 237.713,179.512 237.563,179.290 237.699 C 179.034 237.858,178.936 213.215,179.002 164.905 C 179.062 120.525,178.961 91.959,178.742 92.094 C 178.545 92.216,178.494 92.025,178.630 91.670 C 178.783 91.272,178.696 91.061,178.404 91.118 C 178.143 91.169,177.972 90.998,178.023 90.737 C 178.080 90.444,177.868 90.357,177.470 90.510 C 177.115 90.646,176.925 90.596,177.047 90.398 C 177.181 90.181,167.262 90.039,151.953 90.039 C 137.579 90.039,126.728 90.187,126.848 90.381 M276.586 255.727 C 277.047 256.188,276.642 257.517,276.135 257.204 C 275.946 257.087,275.906 257.292,276.047 257.661 C 276.221 258.113,276.157 258.240,275.852 258.052 C 275.565 257.874,275.478 257.975,275.613 258.328 C 275.730 258.634,275.582 259.128,275.284 259.426 C 274.986 259.724,274.823 260.211,274.922 260.507 C 275.041 260.866,274.933 260.942,274.600 260.736 C 274.269 260.532,274.194 260.581,274.379 260.881 C 274.731 261.451,274.277 262.973,273.836 262.700 C 273.657 262.590,273.610 262.878,273.731 263.342 C 273.872 263.882,273.802 264.092,273.535 263.928 C 273.269 263.763,273.199 263.974,273.340 264.514 C 273.501 265.127,273.426 265.274,273.067 265.051 C 272.703 264.826,272.642 264.965,272.836 265.576 C 272.982 266.035,272.929 266.406,272.719 266.406 C 272.510 266.406,272.431 266.758,272.543 267.188 C 272.655 267.617,272.582 267.969,272.379 267.969 C 272.176 267.969,272.091 268.521,272.190 269.196 C 272.298 269.926,272.218 270.329,271.995 270.191 C 271.765 270.049,271.665 270.829,271.737 272.186 C 271.815 273.666,271.753 274.086,271.552 273.438 C 271.370 272.849,271.242 274.324,271.231 277.146 C 271.219 280.077,271.338 281.539,271.547 281.052 C 271.771 280.532,271.834 280.966,271.737 282.357 C 271.643 283.721,271.719 284.261,271.957 283.920 C 272.205 283.564,272.272 283.796,272.169 284.647 C 272.077 285.395,272.169 285.802,272.398 285.660 C 272.623 285.521,272.689 285.769,272.559 286.267 C 272.438 286.730,272.517 287.109,272.735 287.109 C 272.952 287.109,273.026 287.382,272.898 287.716 C 272.764 288.063,272.830 288.220,273.051 288.083 C 273.404 287.865,273.588 288.488,273.543 289.742 C 273.534 290.008,273.663 290.141,273.831 290.037 C 274.219 289.798,274.686 290.967,274.392 291.442 C 274.271 291.637,274.354 291.797,274.576 291.797 C 275.154 291.797,276.256 294.079,275.932 294.603 C 275.766 294.871,275.836 294.934,276.112 294.764 C 276.512 294.516,276.638 294.759,276.528 295.570 C 276.508 295.712,276.765 295.980,277.097 296.167 C 279.786 297.671,280.339 297.660,207.673 297.566 C 169.400 297.516,144.678 297.376,152.734 297.254 L 167.383 297.034 151.111 297.052 C 142.162 297.062,134.920 296.941,135.017 296.783 C 135.115 296.625,134.632 296.609,133.943 296.747 C 133.104 296.914,132.776 296.860,132.948 296.582 C 133.112 296.316,132.901 296.246,132.361 296.387 C 131.748 296.548,131.601 296.473,131.824 296.113 C 132.051 295.745,131.905 295.691,131.250 295.898 C 130.656 296.087,130.457 296.039,130.635 295.749 C 130.801 295.481,130.674 295.408,130.294 295.554 C 129.960 295.682,129.688 295.598,129.688 295.367 C 129.688 295.135,129.425 295.047,129.105 295.170 C 128.773 295.297,128.419 295.125,128.283 294.769 C 128.151 294.426,127.879 294.247,127.678 294.371 C 127.478 294.495,126.670 293.922,125.885 293.099 C 125.099 292.275,124.702 291.953,125.003 292.383 C 125.303 292.813,124.795 292.461,123.875 291.602 C 121.984 289.838,120.231 287.580,121.115 288.049 C 121.425 288.214,121.302 288.026,120.841 287.632 C 119.754 286.701,118.244 283.676,118.515 282.970 C 118.631 282.669,118.543 282.422,118.321 282.422 C 118.086 282.422,118.027 282.074,118.180 281.592 C 118.372 280.986,118.312 280.843,117.957 281.062 C 117.585 281.292,117.535 281.019,117.744 279.901 C 117.931 278.906,117.886 278.521,117.603 278.696 C 117.323 278.869,117.189 277.959,117.193 275.902 C 117.198 273.702,117.311 273.015,117.599 273.438 C 117.885 273.858,117.923 273.593,117.734 272.502 C 117.540 271.382,117.591 271.056,117.930 271.265 C 118.263 271.471,118.316 271.253,118.123 270.482 C 117.945 269.776,117.994 269.501,118.266 269.669 C 118.527 269.830,118.597 269.615,118.457 269.080 C 118.307 268.507,118.379 268.326,118.684 268.514 C 118.966 268.688,119.053 268.584,118.918 268.235 C 118.801 267.929,118.991 267.393,119.341 267.043 C 119.691 266.693,119.844 266.406,119.680 266.406 C 119.516 266.406,119.723 266.130,120.140 265.791 C 120.557 265.453,120.661 265.299,120.371 265.448 C 119.935 265.672,119.929 265.559,120.336 264.793 C 121.110 263.338,126.106 258.507,126.552 258.782 C 126.773 258.919,126.953 258.848,126.953 258.625 C 126.953 258.046,130.018 256.557,130.543 256.882 C 130.828 257.058,130.870 256.973,130.663 256.639 C 130.427 256.258,130.562 256.183,131.189 256.347 C 131.724 256.487,131.939 256.418,131.778 256.157 C 131.610 255.885,131.885 255.836,132.592 256.013 C 133.370 256.209,133.581 256.155,133.370 255.814 C 133.157 255.469,133.431 255.414,134.412 255.603 C 135.357 255.784,135.572 255.746,135.156 255.470 C 134.767 255.213,158.386 255.124,205.382 255.208 C 252.143 255.291,276.327 255.467,276.586 255.727 M116.406 299.805 C 117.135 300.557,117.643 301.172,117.536 301.172 C 117.429 301.172,116.744 300.557,116.016 299.805 C 115.287 299.053,114.778 298.438,114.886 298.438 C 114.993 298.438,115.677 299.053,116.406 299.805 " stroke="none" fill="#9b2433" fill-rule="evenodd"></path><path id="path2" d="M230.340 156.957 C 229.970 157.367,229.521 158.969,229.274 160.766 C 228.779 164.369,228.894 164.209,226.367 164.818 C 225.293 165.077,223.335 165.818,222.016 166.466 L 219.619 167.642 216.857 165.806 C 213.385 163.497,213.116 163.558,209.260 167.521 C 205.706 171.173,205.682 171.334,208.167 174.873 L 210.084 177.602 208.573 180.607 C 207.743 182.260,206.951 184.208,206.815 184.937 C 206.542 186.389,206.340 186.486,202.659 186.927 C 199.525 187.303,199.058 187.937,198.885 192.048 C 198.628 198.167,199.157 198.994,203.651 199.505 L 206.288 199.805 207.200 202.421 C 207.702 203.859,208.575 205.863,209.139 206.872 L 210.165 208.707 208.662 210.701 C 205.565 214.811,205.548 214.602,209.277 218.440 C 213.656 222.946,213.384 222.899,217.430 219.849 L 219.430 218.342 222.240 219.688 C 223.785 220.428,225.903 221.253,226.946 221.520 L 228.844 222.007 229.307 225.268 C 229.910 229.515,230.147 229.688,235.378 229.688 C 240.261 229.688,240.586 229.434,241.188 225.157 L 241.602 222.221 244.526 221.238 C 246.134 220.697,248.257 219.800,249.244 219.245 L 251.039 218.237 253.156 219.797 C 255.313 221.387,256.768 222.266,257.246 222.266 C 257.784 222.266,263.766 216.180,264.115 215.277 C 264.419 214.491,264.169 213.901,262.528 211.526 L 260.580 208.709 262.125 205.634 C 262.974 203.942,263.774 201.999,263.903 201.314 C 264.134 200.081,264.165 200.066,267.426 199.603 C 271.741 198.991,271.875 198.800,271.875 193.255 C 271.875 188.205,271.400 187.403,268.139 186.955 C 264.222 186.415,264.211 186.410,263.683 184.649 C 263.413 183.746,262.590 181.812,261.854 180.350 L 260.516 177.692 262.212 175.265 C 265.057 171.197,265.006 170.925,260.623 166.699 C 257.373 163.565,257.266 163.552,253.858 165.881 L 251.197 167.699 248.151 166.306 C 246.476 165.540,244.446 164.790,243.642 164.639 C 241.832 164.299,241.890 164.401,241.376 160.684 C 240.776 156.347,240.644 156.250,235.352 156.250 C 231.629 156.250,230.886 156.355,230.340 156.957 M241.406 179.361 C 247.459 182.174,251.031 188.776,249.985 195.215 C 247.202 212.334,222.492 211.646,220.464 194.392 C 219.174 183.418,231.344 174.683,241.406 179.361 " stroke="none" fill="#374042" fill-rule="evenodd"></path><path id="path3" d="M179.488 165.039 C 179.488 205.000,179.534 221.406,179.590 201.496 C 179.646 181.586,179.646 148.891,179.590 128.840 C 179.534 108.788,179.488 125.078,179.488 165.039 M106.051 194.727 C 106.051 239.199,106.097 257.335,106.152 235.027 C 106.208 212.720,106.208 176.334,106.152 154.168 C 106.097 132.003,106.051 150.254,106.051 194.727 M233.496 156.145 C 234.409 156.228,235.903 156.228,236.816 156.145 C 237.729 156.063,236.982 155.996,235.156 155.996 C 233.330 155.996,232.583 156.063,233.496 156.145 M260.924 219.043 L 258.789 221.289 261.035 219.154 C 263.122 217.170,263.460 216.797,263.170 216.797 C 263.109 216.797,262.098 217.808,260.924 219.043 M209.961 219.531 C 211.237 220.820,212.368 221.875,212.476 221.875 C 212.583 221.875,211.627 220.820,210.352 219.531 C 209.076 218.242,207.944 217.188,207.837 217.188 C 207.730 217.188,208.685 218.242,209.961 219.531 M209.698 240.527 C 224.808 240.584,249.417 240.584,264.386 240.527 C 279.355 240.471,266.992 240.424,236.914 240.424 C 206.836 240.424,194.589 240.471,209.698 240.527 " stroke="none" fill="#d7b5bb" fill-rule="evenodd"></path><path id="path4" d="M125.434 90.266 C 124.492 90.451,123.613 90.722,123.481 90.867 C 123.350 91.012,123.682 90.982,124.219 90.799 C 124.756 90.617,136.842 90.408,151.076 90.335 L 176.957 90.203 177.932 91.177 L 178.906 92.152 178.906 164.845 C 178.906 229.058,178.975 237.672,179.499 238.685 C 180.783 241.169,176.999 241.016,237.016 241.016 C 290.661 241.016,291.664 241.029,292.468 241.778 C 293.576 242.811,294.263 245.055,294.006 246.803 L 293.794 248.242 294.216 246.983 C 294.780 245.300,293.984 242.428,292.666 241.391 C 291.708 240.638,290.747 240.625,237.037 240.625 C 177.622 240.625,180.791 240.743,179.764 238.487 C 179.407 237.705,179.297 220.358,179.297 165.039 C 179.297 88.581,179.359 91.135,177.478 90.277 C 176.324 89.752,128.106 89.741,125.434 90.266 M119.083 92.479 C 113.714 95.215,108.145 101.957,107.225 106.836 C 107.104 107.480,107.417 106.940,107.921 105.634 C 110.337 99.375,115.127 94.372,121.026 91.946 C 122.245 91.444,122.953 91.030,122.599 91.025 C 122.245 91.020,120.663 91.674,119.083 92.479 M106.442 195.117 C 106.442 241.738,106.487 260.753,106.543 237.371 C 106.599 213.990,106.599 175.845,106.543 152.605 C 106.487 129.366,106.442 148.496,106.442 195.117 M290.279 255.319 C 288.512 259.102,287.127 262.257,287.201 262.332 C 287.276 262.406,288.786 259.375,290.557 255.596 C 292.329 251.818,293.714 248.662,293.635 248.583 C 293.557 248.505,292.047 251.535,290.279 255.319 M134.054 255.410 C 133.210 255.646,158.074 255.597,165.039 255.349 C 166.758 255.287,160.693 255.219,151.563 255.197 C 142.432 255.174,134.553 255.270,134.054 255.410 M173.749 255.369 C 175.532 255.442,178.344 255.441,179.999 255.368 C 181.654 255.295,180.195 255.236,176.758 255.236 C 173.320 255.237,171.966 255.296,173.749 255.369 M188.379 255.363 C 189.185 255.447,190.503 255.447,191.309 255.363 C 192.114 255.278,191.455 255.209,189.844 255.209 C 188.232 255.209,187.573 255.278,188.379 255.363 M193.652 255.354 C 194.136 255.447,194.927 255.447,195.410 255.354 C 195.894 255.261,195.498 255.185,194.531 255.185 C 193.564 255.185,193.169 255.261,193.652 255.354 M203.809 255.361 C 204.507 255.447,205.649 255.447,206.348 255.361 C 207.046 255.274,206.475 255.203,205.078 255.203 C 203.682 255.203,203.110 255.274,203.809 255.361 M208.691 255.347 C 209.067 255.446,209.683 255.446,210.059 255.347 C 210.435 255.249,210.127 255.169,209.375 255.169 C 208.623 255.169,208.315 255.249,208.691 255.347 M212.598 255.347 C 212.974 255.446,213.589 255.446,213.965 255.347 C 214.341 255.249,214.033 255.169,213.281 255.169 C 212.529 255.169,212.222 255.249,212.598 255.347 M215.527 255.354 C 216.011 255.447,216.802 255.447,217.285 255.354 C 217.769 255.261,217.373 255.185,216.406 255.185 C 215.439 255.185,215.044 255.261,215.527 255.354 M224.712 255.358 C 225.306 255.448,226.185 255.446,226.666 255.353 C 227.146 255.260,226.660 255.187,225.586 255.190 C 224.512 255.193,224.119 255.269,224.712 255.358 M234.863 255.358 C 235.454 255.447,236.421 255.447,237.012 255.358 C 237.603 255.268,237.119 255.195,235.938 255.195 C 234.756 255.195,234.272 255.268,234.863 255.358 M262.598 255.347 C 262.974 255.446,263.589 255.446,263.965 255.347 C 264.341 255.249,264.033 255.169,263.281 255.169 C 262.529 255.169,262.222 255.249,262.598 255.347 M129.395 257.015 C 128.052 257.650,126.953 258.269,126.953 258.390 C 126.953 258.511,127.691 258.233,128.592 257.774 C 129.493 257.314,130.856 256.707,131.619 256.426 C 132.383 256.145,132.744 255.902,132.422 255.887 C 132.100 255.872,130.737 256.380,129.395 257.015 M275.855 257.636 C 274.678 260.058,274.809 260.397,276.022 258.067 C 276.564 257.026,276.940 256.107,276.858 256.025 C 276.777 255.943,276.325 256.668,275.855 257.636 M123.460 261.230 C 122.012 262.681,120.615 264.307,120.354 264.844 C 119.971 265.630,120.047 265.592,120.745 264.648 C 121.221 264.004,122.734 262.378,124.107 261.035 C 125.480 259.692,126.488 258.594,126.347 258.594 C 126.206 258.594,124.907 259.780,123.460 261.230 M273.866 262.292 C 273.416 263.497,273.055 264.696,273.066 264.956 C 273.076 265.217,273.518 264.304,274.047 262.928 C 274.577 261.552,274.937 260.353,274.848 260.264 C 274.759 260.175,274.317 261.088,273.866 262.292 M285.156 267.578 C 284.913 268.481,284.791 269.296,284.884 269.389 C 284.978 269.483,285.244 268.812,285.476 267.898 C 285.708 266.984,285.830 266.169,285.748 266.086 C 285.666 266.004,285.399 266.675,285.156 267.578 M118.604 268.351 C 118.254 269.224,117.977 270.154,117.987 270.418 C 117.997 270.682,118.344 270.030,118.759 268.968 C 119.173 267.907,119.451 266.977,119.375 266.901 C 119.300 266.826,118.953 267.478,118.604 268.351 M271.596 272.461 C 271.599 273.535,271.675 273.928,271.765 273.334 C 271.854 272.741,271.852 271.862,271.759 271.381 C 271.667 270.901,271.593 271.387,271.596 272.461 M284.105 274.023 C 284.108 275.313,284.181 275.793,284.267 275.091 C 284.354 274.389,284.353 273.334,284.263 272.747 C 284.174 272.160,284.103 272.734,284.105 274.023 M117.321 275.977 C 117.323 277.695,117.392 278.350,117.474 277.431 C 117.557 276.512,117.555 275.106,117.471 274.306 C 117.388 273.506,117.320 274.258,117.321 275.977 M271.200 276.953 C 271.200 277.920,271.276 278.315,271.369 277.832 C 271.463 277.349,271.463 276.558,271.369 276.074 C 271.276 275.591,271.200 275.986,271.200 276.953 M284.175 280.078 C 284.259 281.475,284.515 283.057,284.744 283.594 C 285.112 284.458,285.131 284.413,284.906 283.203 C 284.766 282.451,284.509 280.869,284.336 279.688 L 284.022 277.539 284.175 280.078 M106.739 281.445 C 106.743 282.305,106.823 282.610,106.917 282.124 C 107.010 281.638,107.007 280.935,106.909 280.562 C 106.811 280.188,106.735 280.586,106.739 281.445 M271.682 282.645 C 271.774 283.949,272.031 285.443,272.254 285.965 C 272.604 286.783,272.626 286.726,272.409 285.547 C 272.271 284.795,272.014 283.301,271.837 282.227 C 271.519 280.289,271.518 280.293,271.682 282.645 M118.390 283.118 C 118.356 283.678,120.215 287.500,120.521 287.500 C 120.628 287.500,120.298 286.665,119.788 285.645 C 119.277 284.624,118.761 283.525,118.640 283.203 C 118.497 282.821,118.410 282.792,118.390 283.118 M107.049 283.616 C 107.028 284.340,108.621 289.166,108.816 288.970 C 108.891 288.896,108.528 287.523,108.009 285.921 C 107.491 284.319,107.058 283.281,107.049 283.616 M285.169 285.156 C 285.157 286.502,291.527 297.983,292.683 298.697 C 292.936 298.854,292.746 298.376,292.262 297.635 C 289.774 293.834,286.938 288.858,286.108 286.840 C 285.595 285.592,285.172 284.834,285.169 285.156 M272.679 287.232 C 272.645 287.709,274.302 291.453,274.472 291.283 C 274.553 291.203,274.187 290.187,273.660 289.025 C 273.133 287.864,272.691 287.057,272.679 287.232 M121.388 288.867 C 121.835 289.512,122.957 290.742,123.882 291.602 C 125.308 292.927,125.243 292.808,123.456 290.820 C 120.631 287.679,120.442 287.501,121.388 288.867 M108.989 289.566 C 108.980 290.177,110.675 293.210,112.309 295.508 C 117.443 302.729,126.413 308.446,133.739 309.167 C 135.626 309.353,135.594 309.333,133.203 308.822 C 123.389 306.725,115.388 300.748,110.401 291.788 C 109.627 290.396,108.991 289.397,108.989 289.566 M275.586 293.750 C 276.130 294.824,276.664 295.703,276.771 295.703 C 276.878 295.703,276.521 294.824,275.977 293.750 C 275.432 292.676,274.899 291.797,274.792 291.797 C 274.684 291.797,275.042 292.676,275.586 293.750 M132.227 296.484 C 132.656 296.669,133.359 296.815,133.789 296.809 C 134.417 296.799,134.379 296.736,133.594 296.484 C 132.258 296.057,131.231 296.057,132.227 296.484 M172.949 297.559 C 192.124 297.615,223.501 297.615,242.676 297.559 C 261.851 297.503,246.162 297.457,207.813 297.457 C 169.463 297.457,153.774 297.503,172.949 297.559 M293.558 300.586 C 294.560 303.442,294.093 307.027,292.535 308.438 C 291.737 309.160,289.648 309.185,213.729 309.379 L 135.742 309.579 213.802 309.575 L 291.861 309.570 292.973 308.326 C 294.705 306.387,295.018 301.713,293.547 299.743 C 293.099 299.143,293.101 299.284,293.558 300.586 " stroke="none" fill="#641427" fill-rule="evenodd"></path></g></svg>